<?xml version="1.0" standalone="no"?>
<!DOCTYPE svg PUBLIC "-//W3C//DTD SVG 20010904//EN"
 "http://www.w3.org/TR/2001/REC-SVG-20010904/DTD/svg10.dtd">
<svg version="1.0" xmlns="http://www.w3.org/2000/svg"
 width="792.000000pt" height="792.000000pt" viewBox="0 0 792.000000 792.000000"
 preserveAspectRatio="xMidYMid meet">
<metadata>
Created by potrace 1.14, written by Peter Selinger 2001-2017
</metadata>
<g transform="translate(0.000000,792.000000) scale(0.100000,-0.100000)"
fill="#000000" stroke="none">
<path d="M6416 7243 c-2 -2 -27 -6 -55 -8 -29 -3 -69 -9 -89 -14 -20 -6 -48
-12 -62 -15 -25 -4 -43 -10 -77 -23 -10 -3 -20 -7 -23 -8 -3 -1 -27 -11 -53
-23 -27 -12 -51 -22 -54 -22 -6 0 -126 -72 -133 -80 -3 -3 -21 -17 -40 -30
-115 -79 -252 -242 -322 -382 -32 -63 -62 -133 -58 -133 1 0 -4 -13 -10 -30
-7 -16 -13 -37 -15 -45 -2 -8 -8 -33 -14 -55 -17 -66 -25 -144 -25 -250 0 -92
3 -126 19 -225 9 -52 53 -184 86 -256 61 -132 203 -308 327 -406 32 -25 33
-28 24 -62 -6 -20 -8 -36 -5 -36 3 0 1 -6 -4 -12 -6 -7 -14 -31 -18 -53 -5
-22 -10 -46 -12 -52 -1 -7 -5 -21 -7 -30 -3 -10 -5 -18 -6 -18 -1 0 -3 -7 -5
-15 -5 -28 -56 -225 -65 -255 -8 -28 -37 -139 -46 -177 -5 -24 -14 -61 -18
-73 -2 -5 -6 -23 -10 -40 -4 -16 -10 -37 -13 -45 -4 -8 -7 -23 -8 -32 -2 -10
-3 -19 -5 -20 -1 -2 -3 -10 -5 -18 -1 -8 -13 -53 -25 -100 -12 -47 -24 -95
-26 -108 -3 -13 -11 -42 -18 -65 -7 -23 -35 -127 -61 -232 -26 -104 -50 -197
-53 -205 -3 -8 -6 -20 -7 -25 -2 -6 -10 -42 -20 -82 l-17 -71 -47 -8 c-25 -4
-53 -9 -61 -10 -16 -4 -55 -9 -138 -20 -49 -6 -54 -5 -78 22 -50 54 -229 246
-294 315 -88 92 -280 296 -320 339 -18 19 -91 98 -164 174 -72 77 -153 164
-181 194 -27 29 -75 80 -105 112 -30 32 -111 117 -180 191 -69 73 -156 166
-195 207 -38 41 -71 78 -73 82 -2 5 10 37 27 72 27 57 56 134 67 177 19 80 23
103 30 151 9 65 10 226 1 290 -5 37 -28 142 -41 185 -2 6 -6 24 -11 40 -10 41
-88 196 -127 253 -41 62 -123 158 -173 202 -21 19 -46 42 -55 50 -29 28 -154
107 -210 132 -108 50 -126 57 -206 78 -112 29 -132 31 -269 34 -127 3 -266
-15 -337 -43 -16 -6 -28 -8 -28 -5 0 4 -6 2 -13 -3 -6 -5 -34 -18 -62 -28
-123 -45 -256 -135 -365 -245 -94 -94 -99 -101 -151 -180 -81 -123 -143 -279
-164 -410 -2 -14 -6 -39 -9 -57 -9 -47 -10 -220 -2 -283 36 -278 198 -570 402
-727 26 -19 34 -32 31 -47 -3 -12 -8 -31 -11 -44 -2 -12 -8 -27 -11 -32 -3 -5
-8 -19 -10 -30 -2 -11 -20 -73 -41 -137 -20 -65 -45 -145 -54 -178 -10 -33
-55 -179 -100 -325 -45 -146 -94 -308 -110 -360 -16 -52 -63 -205 -105 -340
-41 -135 -77 -250 -78 -257 -5 -22 -15 -26 -76 -29 -113 -5 -290 -46 -358 -83
-10 -5 -40 -20 -67 -32 -202 -92 -412 -309 -516 -533 -32 -68 -74 -196 -85
-256 -17 -93 -23 -285 -11 -345 3 -16 9 -50 12 -75 15 -105 100 -317 160 -397
13 -17 24 -35 24 -38 0 -9 86 -110 126 -150 169 -165 349 -258 598 -311 22 -5
156 -16 191 -17 29 0 166 12 195 18 63 12 76 15 129 31 125 36 246 99 361 188
112 86 198 182 275 307 49 79 120 250 129 313 4 21 8 41 11 45 15 25 23 272
12 361 -27 215 -116 414 -261 585 -28 33 -63 71 -79 85 l-28 26 46 149 c26 83
62 202 82 265 20 63 36 117 36 120 1 3 11 39 25 80 26 82 61 196 67 220 2 8
18 60 35 115 46 145 80 258 84 275 3 8 9 27 15 43 6 15 8 27 5 27 -2 0 1 10 7
22 10 19 26 69 44 138 2 8 18 60 35 115 30 93 52 163 55 175 1 3 5 17 9 33 5
15 13 28 20 28 50 5 83 11 164 32 l93 23 127 -134 c141 -149 189 -200 342
-363 58 -62 121 -129 140 -149 19 -20 87 -92 150 -159 63 -68 135 -144 160
-171 25 -26 97 -102 160 -170 63 -67 135 -144 160 -170 25 -26 97 -103 160
-171 63 -68 125 -133 137 -144 24 -24 24 -36 0 -82 -42 -80 -89 -223 -104
-316 -10 -65 -10 -318 1 -372 4 -22 14 -65 22 -95 8 -30 16 -62 18 -70 7 -27
70 -164 93 -202 13 -21 23 -42 23 -48 0 -5 4 -10 8 -10 5 0 13 -8 18 -19 31
-65 184 -219 284 -286 41 -27 77 -53 78 -57 2 -5 9 -8 17 -8 7 0 33 -12 59
-26 25 -14 52 -27 59 -28 6 -2 25 -8 41 -15 47 -19 176 -50 250 -59 65 -9 243
-7 296 2 117 21 220 51 293 86 22 11 47 20 54 20 7 0 13 4 13 8 0 4 19 18 43
30 44 23 78 43 87 52 3 3 25 21 50 41 187 151 343 395 386 604 2 11 7 34 11
50 12 55 13 69 17 204 2 74 -1 152 -6 175 -47 218 -94 339 -181 466 -50 71
-57 80 -154 176 l-92 92 20 73 c11 41 21 81 23 89 2 8 12 44 21 80 9 36 18 73
20 82 2 9 13 51 25 93 12 42 23 84 25 93 2 9 15 62 29 117 15 55 29 111 32
125 3 14 9 39 14 55 5 17 13 48 19 70 6 22 17 64 25 94 8 30 13 58 10 63 -3 4
-1 8 4 8 5 0 9 6 9 13 0 12 113 455 138 540 8 26 12 47 9 47 -3 0 0 8 5 18 6
11 12 30 15 43 11 63 30 125 39 131 6 3 19 5 29 3 10 -2 18 -1 18 3 0 4 8 8
18 9 40 3 92 14 130 27 22 8 43 12 46 9 3 -4 6 -1 6 5 0 7 7 12 16 12 10 0 56
20 103 43 226 115 398 287 508 510 34 69 78 190 88 244 3 15 7 39 10 52 17 86
22 262 10 332 -4 19 -8 45 -10 59 -9 73 -67 244 -107 318 -98 182 -260 357
-408 441 -14 8 -46 27 -72 42 -27 16 -48 26 -48 23 0 -2 -10 0 -21 7 -35 18
-177 68 -182 63 -2 -3 -15 0 -28 5 -43 16 -311 36 -323 24z m164 -807 c41 -8
103 -43 146 -84 28 -26 90 -122 79 -122 -2 0 0 -12 6 -27 24 -64 -2 -216 -45
-258 -9 -9 -21 -24 -28 -33 -46 -63 -144 -105 -243 -103 -164 2 -299 130 -309
294 -8 133 61 251 182 311 28 15 52 24 52 21 0 -3 7 -2 15 2 17 10 91 9 145
-1z m-3894 -581 c21 -9 46 -23 56 -32 10 -9 18 -13 18 -10 0 13 67 -68 86
-103 27 -52 41 -114 38 -167 -3 -44 -10 -84 -14 -90 -2 -2 -3 -6 -4 -10 -3
-21 -54 -91 -89 -122 -64 -58 -110 -74 -217 -75 -92 -1 -167 30 -226 93 -140
152 -107 380 71 495 68 45 202 54 281 21z m2916 -3284 c77 -33 153 -120 175
-201 2 -8 6 -45 7 -81 4 -70 -23 -159 -57 -194 -9 -9 -20 -22 -24 -29 -15 -24
-112 -84 -150 -91 -164 -35 -300 29 -374 173 -20 39 -24 62 -24 132 0 116 12
145 100 234 51 52 101 76 174 83 19 2 36 5 38 7 7 7 90 -13 135 -33z m-4145
-465 c35 -8 106 -52 139 -88 140 -149 110 -383 -63 -492 -35 -21 -133 -53
-153 -49 -3 1 -29 4 -59 7 -30 3 -61 12 -69 19 -8 6 -17 11 -19 9 -6 -5 -58
27 -86 53 -212 201 -61 565 228 550 33 -2 70 -6 82 -9z"/>
</g>
</svg>
